<svg xmlns="http://www.w3.org/2000/svg" width="24" height="24" viewBox="0 0 24 24">
    <g fill-rule="evenodd">
        <path fill-rule="nonzero" d="M22.56 17.042L14.853 3.658c-1.26-2.21-4.443-2.21-5.697 0L1.444 17.042C.184 19.253 1.752 22 4.292 22h15.393c2.54 0 4.134-2.774 2.875-4.958zM12 19.031c-.67 0-1.228-.559-1.228-1.23 0-.672.558-1.23 1.228-1.23.67 0 1.227.558 1.2 1.261.031.64-.557 1.199-1.2 1.199zm1.118-7.954c-.054.953-.113 1.902-.167 2.855-.027.31-.027.59-.027.895a.925.925 0 0 1-.924.894.905.905 0 0 1-.924-.867c-.082-1.485-.168-2.942-.25-4.427-.026-.39-.054-.785-.085-1.175 0-.645.362-1.176.95-1.344a1.23 1.23 0 0 1 1.427.699c.086.195.113.39.113.617-.027.622-.086 1.24-.113 1.853z"/>
    </g>
</svg>
