<svg xmlns="http://www.w3.org/2000/svg" width="10" height="10" viewBox="0 0 10 10">
    <g fill="#000" fill-rule="nonzero">
        <path d="M5.417 10h-5C.167 10 0 9.833 0 9.583V.417C0 .167.167 0 .417 0h5c.25 0 .416.167.416.417v9.166c0 .25-.166.417-.416.417zM.833 9.167H5V.833H.833v8.334z"/>
        <path d="M9.583 10H5.417C5.167 10 5 9.833 5 9.583V2.917c0-.25.167-.417.417-.417h4.166c.25 0 .417.167.417.417v6.666c0 .25-.167.417-.417.417zm-3.75-.833h3.334V3.333H5.833v5.834zM2.083 6.667c-.25 0-.416-.167-.416-.417V2.083c0-.25.166-.416.416-.416.25 0 .417.166.417.416V6.25c0 .25-.167.417-.417.417zM3.75 6.667c-.25 0-.417-.167-.417-.417V2.083c0-.25.167-.416.417-.416.25 0 .417.166.417.416V6.25c0 .25-.167.417-.417.417z"/>
        <path d="M8.333 10H6.667c-.25 0-.417-.167-.417-.417V7.917c0-.25.167-.417.417-.417h1.666c.25 0 .417.167.417.417v1.666c0 .25-.167.417-.417.417zm-1.25-.833h.834v-.834h-.834v.834zM3.75 10H2.083c-.25 0-.416-.167-.416-.417V7.917c0-.25.166-.417.416-.417H3.75c.25 0 .417.167.417.417v1.666c0 .25-.167.417-.417.417zM2.5 9.167h.833v-.834H2.5v.834zM8.333 6.667H6.667c-.25 0-.417-.167-.417-.417 0-.25.167-.417.417-.417h1.666c.25 0 .417.167.417.417 0 .25-.167.417-.417.417zM8.333 5H6.667c-.25 0-.417-.167-.417-.417 0-.25.167-.416.417-.416h1.666c.25 0 .417.166.417.416 0 .25-.167.417-.417.417z"/>
    </g>
</svg>
