<svg xmlns="http://www.w3.org/2000/svg" width="24" height="24" viewBox="0 0 24 24">
    <g fill="#000" fill-rule="nonzero">
        <path d="M16.244 22.772c.657-1.098 1.623-1.66 2.904-1.676 1.281-.015 1.928-.667 1.949-1.951.018-1.278.574-2.244 1.672-2.898 1.101-.657 1.34-1.54.713-2.66-.624-1.116-.624-2.232 0-3.35.627-1.117.39-1.999-.713-2.656-1.098-.658-1.656-1.623-1.672-2.907-.021-1.278-.668-1.93-1.949-1.945-1.281-.018-2.247-.578-2.904-1.676-.657-1.1-1.54-1.34-2.656-.712-1.116.624-2.235.624-3.351 0-1.118-.626-2.001-.389-2.658.712-.656 1.1-1.623 1.66-2.903 1.676-1.278.015-1.927.667-1.945 1.945-.021 1.284-.578 2.247-1.676 2.907-1.101.657-1.342 1.538-.712 2.655.627 1.12.627 2.235 0 3.351-.63 1.12-.39 2.004.712 2.66 1.098.654 1.656 1.62 1.676 2.898.018 1.282.667 1.936 1.945 1.951 1.281.015 2.247.578 2.904 1.676.657 1.1 1.54 1.34 2.657.71 1.116-.619 2.235-.619 3.35 0 1.117.628 2.002.39 2.657-.71zm-4.329-3.85a7.01 7.01 0 1 1-.002-14.02 7.01 7.01 0 0 1 .002 14.02z"/>
        <path d="M13.379 10.364l-1.467-2.97-1.468 2.97-3.284.48 2.373 2.314-.56 3.273 2.939-1.543 2.939 1.543-.56-3.273 2.373-2.314z"/>
    </g>
</svg>
