<svg xmlns="http://www.w3.org/2000/svg" width="24" height="24" viewBox="0 0 24 24">
  <g fill-rule="nonzero">
    <path d="M7.906 9.376c3.086-3.086 7.446-6.651 10.107-7.122-.051-.003-.097-.01-.152-.01-1.933 0-6.118 1.872-10.54 4.833C3.99 9.31 1.588 12.1.199 13.974A1.014 1.014 0 0 0 1.26 15.56a32.11 32.11 0 0 0 2.389-.712c1.063-1.746 2.463-3.677 4.257-5.471zM11.88 19.562a1.75 1.75 0 0 0 .001 2.477 1.751 1.751 0 1 0-.002-2.477zM17.866 18.707a1.75 1.75 0 0 0 .001 2.477 1.748 1.748 0 0 0 2.476 0 1.752 1.752 0 0 0-2.477-2.477zM17.397 15.796a1.75 1.75 0 1 0-2.479 2.472 1.75 1.75 0 0 0 2.479-2.472z"/>
    <path d="M23.068 1.041C21.81.886 19.675 2.513 18.64 3.383c-1.865-.072-5.836 2.762-9.9 6.826-2.834 2.834-4.65 6.04-5.65 8.146a1.013 1.013 0 0 0 1.349 1.35c2.107-1 5.311-2.817 8.145-5.651 4.034-4.033 6.775-8.036 6.822-9.776 1.323-1.118 2.91-2.146 3.513-2.067a.595.595 0 0 0 .66-.51.59.59 0 0 0-.511-.66zM9.026 16.001a1.576 1.576 0 0 1-2.231 0 1.578 1.578 0 1 1 2.232-2.233 1.578 1.578 0 0 1 0 2.233zm3.436-3.233a1.722 1.722 0 1 1-2.434-2.436 1.722 1.722 0 0 1 2.434 2.436zm3.234-3.436a1.577 1.577 0 0 1-2.232 0A1.577 1.577 0 1 1 15.696 7.1a1.578 1.578 0 0 1 0 2.232z"/>
  </g>
</svg>
