<svg xmlns="http://www.w3.org/2000/svg" width="24" height="24" viewBox="0 0 24 24">
    <path fill-rule="nonzero" d="M22.68 1.32C21.8.44 20.74 0 19.5 0h-15C3.26 0 2.2.44 1.32 1.32.44 2.2 0 3.26 0 4.5v15c0 1.24.44 2.3 1.32 3.18C2.2 23.56 3.26 24 4.5 24h15c1.24 0 2.3-.44 3.18-1.32.88-.88 1.32-1.94 1.32-3.18v-15c0-1.24-.44-2.3-1.32-3.18zM20 12.5c0 .437-.203.744-.61.922a1.088 1.088 0 0 1-.39.078.93.93 0 0 1-.703-.297l-2.25-2.25-8.343 8.344a.962.962 0 0 1-.704.297.962.962 0 0 1-.703-.297l-1.594-1.594A.96.96 0 0 1 4.406 17a.96.96 0 0 1 .297-.703l8.344-8.344-2.25-2.25c-.323-.302-.396-.666-.219-1.094.177-.406.485-.61.922-.61H19c.27 0 .505.1.703.298A.961.961 0 0 1 20 5v7.5z"/>
</svg>
