<svg xmlns="http://www.w3.org/2000/svg" width="24" height="24" viewBox="0 0 24 24">
    <g fill-rule="nonzero">
        <path d="M3.374 14.582l1.705.219a6.326 6.326 0 0 1-2.394-2.956 7.41 7.41 0 0 0 3.641 2.322c.147.212.311.407.475.6a.784.784 0 0 1 .09-.165c.376-.497.923-.76 1.582-.76.808.002 1.654.032 2.513.213 1.46-.49 2.706-1.385 3.564-2.546a6.284 6.284 0 0 1-1.803 2.741c.177-.034.354-.08.533-.151a6.453 6.453 0 0 1 1.432-.395 7.38 7.38 0 0 0 .528-7.344 7.36 7.36 0 0 0-.531-.941 7.505 7.505 0 0 0-.666-.835 7.4 7.4 0 0 0-5.486-2.441c-1.572 0-3.03.496-4.232 1.332h-.1c0 .026.002.05.004.075a7.41 7.41 0 0 0-1.94 2.062A7.337 7.337 0 0 0 1.21 8.575a7.303 7.303 0 0 0-.075.989c0 1.913.734 3.654 1.927 4.971.089.02.185.037.31.047zm6.87-1.112a7.14 7.14 0 0 1-3.35.046 7.457 7.457 0 0 1-1.118-3.05 7.558 7.558 0 0 0 2.706.499 7.518 7.518 0 0 0 2.86-.56 7.44 7.44 0 0 1-1.098 3.065zm1.158-3.908a6.76 6.76 0 0 1-2.92.657 6.778 6.778 0 0 1-2.773-.59c-.003-.072-.007-.142-.007-.215 0-.85.138-1.666.39-2.422a4.23 4.23 0 0 0 4.896-.082c.27.78.421 1.62.421 2.503 0 .052-.005.1-.007.149zm3.44-.387c-.468 1.695-1.733 3.102-3.413 3.875a8.36 8.36 0 0 0 .797-3.082 6.846 6.846 0 0 0 2.36-2.242 6.3 6.3 0 0 1 .256 1.45zm-.608-2.334a5.936 5.936 0 0 1-1.998 2.247 8.474 8.474 0 0 0-.579-2.786c.408-.459.72-1.003.903-1.604a6.359 6.359 0 0 1 1.674 2.143zm-2.41-2.658a3.403 3.403 0 0 1-.56 1.268 7.84 7.84 0 0 0-1.598-2.087 6.309 6.309 0 0 1 2.158.819zm-3.268-.647a6.942 6.942 0 0 1 2.102 2.57 3.39 3.39 0 0 1-2.176.787 3.384 3.384 0 0 1-2.067-.703 6.922 6.922 0 0 1 2.14-2.654zm-1.113-.172a7.88 7.88 0 0 0-1.66 2.2c-.293-.38-.51-.82-.623-1.302a6.303 6.303 0 0 1 2.283-.898zM4.439 4.802c.199.61.536 1.16.97 1.612a8.484 8.484 0 0 0-.537 2.766 5.98 5.98 0 0 1-2.064-2.19 6.305 6.305 0 0 1 1.63-2.188zM2.253 9.564c0-.58.084-1.139.232-1.676a6.883 6.883 0 0 0 2.406 2.165 8.383 8.383 0 0 0 .831 3.08c-1.628-.69-2.898-1.968-3.467-3.533l-.002-.036z"/>
        <path d="M20.528 18.206c-1.02-1.384-2.356-2.416-3.764-3.334-1.142-.743-2.443-.584-3.656-.1-.742.298-1.476.333-2.19.117-.95-.287-1.908-.318-2.879-.322-.416-.001-.762.144-1.01.47-.138.184.996.943 1.968.943-.18.36-3.325-.403-3.744-.372l-2.379-.304c-.845-.068-.844-.388-1.675.082-.028.017-.069.017-.103.014-.462-.026-.724.12-.98.427-.15.176-.137.394-.058.6.084.215.295.16.47.229 1.064.42 1.406.626 2.85.983 1.025.253 2.024.563 3.05.794.423.096.853.169 1.236.383.812.457 1.674.596 2.601.553 1.052-.048 2.107-.005 3.162-.011 1.85-.009 3.257.732 4.208 2.362l5.953-.013c-1.3-1.519-1.872-1.888-3.06-3.501z"/>
    </g>
</svg>
